<?xml version="1.0" encoding="iso-8859-1"?>
<!-- Generator: Adobe Illustrator 19.0.0, SVG Export Plug-In . SVG Version: 6.00 Build 0)  -->
<svg xmlns="http://www.w3.org/2000/svg" xmlns:xlink="http://www.w3.org/1999/xlink" version="1.1" id="Capa_1" x="0px" y="0px" viewBox="0 0 512 512" style="enable-background:new 0 0 512 512;" xml:space="preserve" width="512px" height="512px">
<g>
	<g>
		<path d="M289.521,237.638c-5.545,0-10.039,4.496-10.039,10.039v113.142c0,5.545,4.495,10.039,10.039,10.039    c5.545,0,10.039-4.496,10.039-10.039V247.677C299.56,242.134,295.066,237.638,289.521,237.638z" fill="#263e7d"/>
	</g>
</g>
<g>
	<g>
		<path d="M222.308,237.638c-5.545,0-10.039,4.496-10.039,10.039v143.26c0,5.544,4.495,10.039,10.039,10.039    s10.039-4.496,10.039-10.039v-143.26C232.348,242.134,227.853,237.638,222.308,237.638z" fill="#263e7d"/>
	</g>
</g>
<g>
	<g>
		<path d="M155.096,237.638c-5.545,0-10.039,4.496-10.039,10.039v143.26c0,5.544,4.495,10.039,10.039,10.039    c5.545,0,10.039-4.496,10.039-10.039v-143.26C165.135,242.134,160.641,237.638,155.096,237.638z" fill="#263e7d"/>
	</g>
</g>
<g>
	<g>
		<path d="M425.02,176.61h-72.634v-34.019c15.17-4.368,26.303-18.364,26.303-34.92c0-16.554-11.13-30.557-26.303-34.922V62.735    c0-22.248-18.1-40.348-40.348-40.348c-10.767,0-20.898,4.194-28.531,11.815c-5.56,5.559-9.297,12.458-10.912,19.97h-18.494    c-3.936-18.149-20.122-31.784-39.433-31.784c-8.966,0-17.492,2.908-24.504,8.284C182.291,12.636,164.284,0,143.38,0    c-13.629,0-26.442,5.309-36.081,14.947c-9.634,9.632-14.938,22.443-14.938,36.072v2.899    c-20.335,4.584-35.569,22.789-35.569,44.486c0,21.699,15.237,39.895,35.569,44.482v309.127    c-16.129,8.45-27.166,25.345-27.166,44.778v5.17c0,5.544,4.495,10.039,10.039,10.039h294.28c5.545,0,10.039-4.496,10.039-10.039    v-5.17c0-19.433-11.037-36.328-27.166-44.778v-30.888h72.634c16.646,0,30.188-13.542,30.188-30.188V206.798    C455.208,190.152,441.666,176.61,425.02,176.61z M359.085,491.922H85.663c2.338-14.484,14.932-25.58,30.069-25.58h213.283    C344.153,466.342,356.747,477.439,359.085,491.922z M227.988,180.716c1.156,7.508,4.643,14.431,10.112,19.898    c6.803,6.804,15.845,10.551,25.46,10.551c17.96,0,32.888-13.224,35.57-30.449h33.179v5.933v40.287v143.852v40.298v35.176h-3.293    H115.732v0h-3.293V180.716H227.988z M112.439,160.638v-16.625h115.12v16.625H112.439z M299.56,160.638v-16.625h32.748v16.625    H299.56z M342.347,123.934h-51.029c-0.303,0-0.602,0.019-0.898,0.045c-0.296-0.026-0.595-0.045-0.898-0.045    c-5.545,0-10.039,4.496-10.039,10.039v41.181c0,8.785-7.143,15.932-15.922,15.932c-4.253,0-8.252-1.657-11.263-4.669    c-3.005-3.004-4.659-7.004-4.659-11.263v-41.181c0-5.544-4.495-10.039-10.039-10.039H102.4c-14.077,0-25.53-11.453-25.53-25.53    c0-14.072,11.453-25.52,25.53-25.52c5.545,0,10.039-4.496,10.039-10.039V51.019c0-8.266,3.217-16.035,9.056-21.874    c5.847-5.847,13.618-9.066,21.884-9.066c17.062,0,30.941,13.88,30.941,30.941v11.716c0,5.544,4.495,10.039,10.039,10.039    c5.545,0,10.039-4.496,10.039-10.039c0-5.417,2.107-10.509,5.927-14.328c3.838-3.831,8.931-5.941,14.342-5.941    c11.177,0,20.269,9.094,20.269,20.269v1.476c0,5.544,4.495,10.039,10.039,10.039h36.754c5.545,0,10.039-4.496,10.039-10.039    v-1.476c0-5.417,2.107-10.509,5.928-14.329c3.837-3.83,8.931-5.94,14.341-5.94c11.177,0,20.269,9.094,20.269,20.269v18.643    c0,5.544,4.495,10.039,10.039,10.039c8.968,0,16.263,7.291,16.263,16.253C358.611,116.639,351.314,123.934,342.347,123.934z     M352.387,236.976h42.446v123.773h-42.446V236.976z M435.13,390.937c0,5.575-4.536,10.109-10.109,10.109h-72.634v-20.219h52.485    c5.545,0,10.039-4.496,10.039-10.039V226.936c0-5.544-4.495-10.039-10.039-10.039h-52.485v-20.209h72.634    c5.575,0,10.109,4.536,10.109,10.109V390.937z" fill="#263e7d"/>
	</g>
</g>
<g>
	<g>
		<path d="M290.133,381.49c-12.919,0-12.941,20.078,0,20.078C303.053,401.569,303.074,381.49,290.133,381.49z" fill="#263e7d"/>
	</g>
</g>
<g>
</g>
<g>
</g>
<g>
</g>
<g>
</g>
<g>
</g>
<g>
</g>
<g>
</g>
<g>
</g>
<g>
</g>
<g>
</g>
<g>
</g>
<g>
</g>
<g>
</g>
<g>
</g>
<g>
</g>
</svg>
