<?xml version="1.0" encoding="iso-8859-1"?>
<!-- Generator: Adobe Illustrator 19.0.0, SVG Export Plug-In . SVG Version: 6.00 Build 0)  -->
<svg xmlns="http://www.w3.org/2000/svg" xmlns:xlink="http://www.w3.org/1999/xlink" version="1.1" id="Capa_1" x="0px" y="0px" viewBox="0 0 512 512" style="enable-background:new 0 0 512 512;" xml:space="preserve" width="512px" height="512px">
<g>
	<g>
		<path d="M222.918,347.854c-5.4-1.153-10.714,2.289-11.868,7.69c-0.021,0.095-0.056,0.276-0.076,0.387    c-1.018,5.402,2.518,10.62,7.921,11.668c0.645,0.125,1.285,0.186,1.917,0.186c4.691,0,8.878-3.318,9.806-8.096    c0.006-0.028,0.016-0.083,0.024-0.131C231.693,354.215,228.265,348.996,222.918,347.854z" fill="#fbebd5"/>
	</g>
</g>
<g>
	<g>
		<path d="M255.652,448.906h-0.197c-5.523,0-10,4.477-10,10s4.477,10,10,10h0.197c5.522,0,10-4.477,10-10    C265.652,453.383,261.174,448.906,255.652,448.906z" fill="#fbebd5"/>
	</g>
</g>
<g>
	<g>
		<path d="M511.51,197.678c-1.051-3.233-3.672-5.711-6.96-6.579l-147.032-38.794v-44.742c0-18.883-15.362-34.246-34.245-34.246    c-6.916,0-13.355,2.068-18.745,5.608l-40.12-62.3c-1.841-2.858-5.008-4.586-8.407-4.586c-3.399,0-6.566,1.727-8.407,4.585    l-61.041,94.786c-2.794-0.739-5.726-1.137-8.749-1.137c-18.882,0-34.244,15.363-34.244,34.246v10.667L7.45,191.099    c-3.288,0.867-5.909,3.345-6.96,6.579c-1.051,3.233-0.387,6.779,1.764,9.413L102.92,330.437l-8.94,158.96    c-0.19,3.395,1.355,6.653,4.106,8.652c1.734,1.26,3.797,1.91,5.879,1.91c1.22,0,2.447-0.223,3.618-0.678l71.945-27.933v18.611    c0,5.523,4.478,10,10,10h115.631c5.523,0,10-4.477,10-10v-25.332l89.258,34.655c1.171,0.455,2.397,0.678,3.618,0.678    c2.082,0,4.145-0.65,5.879-1.91c2.75-1.999,4.297-5.257,4.106-8.652l-8.94-158.959l100.667-123.347    C511.897,204.457,512.561,200.911,511.51,197.678z M309.029,107.563c0-7.855,6.39-14.246,14.245-14.246    c7.855,0,14.244,6.391,14.244,14.246v126.152c-1.094-0.105-2.201-0.164-3.322-0.164h-25.167V107.563z M256,40.509l35.299,54.814    c-1.462,3.804-2.271,7.928-2.271,12.241v77.34c-4.341-1.995-9.163-3.116-14.245-3.116c-9.463,0-18.042,3.859-24.246,10.086    c-6.205-6.226-14.782-10.084-24.246-10.084c-5.081,0-9.902,1.121-14.242,3.115v-40.386c0-8.632-3.218-16.522-8.508-22.552    L256,40.509z M260.538,236.668v-20.634c0-7.855,6.391-14.246,14.246-14.246c7.855,0,14.245,6.391,14.245,14.246v17.519h-14.246    v-0.001C269.701,233.552,264.879,234.673,260.538,236.668z M240.537,216.033L240.537,216.033v51.765v24.766    c0,7.853-6.391,14.243-14.246,14.243c-7.854,0-14.242-6.389-14.242-14.243v-44.196v-32.335c0-7.854,6.39-14.243,14.244-14.243    C234.148,201.79,240.537,208.18,240.537,216.033z M179.528,449.894l-64.708,25.123l8.286-147.333    c0.14-2.494-0.658-4.949-2.237-6.884L27.566,206.476l115.993-30.605v68.481v81.661c0,31.701,13.557,61.324,35.969,82.231V449.894z     M300.407,407.005c-0.017,0.009-0.033,0.019-0.05,0.028c-0.003,0.001-0.006,0.003-0.009,0.005    c-0.013,0.007-0.023,0.016-0.036,0.022c-0.272,0.151-0.538,0.314-0.794,0.489c-0.122,0.083-0.234,0.175-0.352,0.263    c-0.14,0.104-0.28,0.205-0.414,0.316c-0.15,0.126-0.291,0.261-0.434,0.395c-0.091,0.086-0.186,0.167-0.273,0.256    c-0.143,0.146-0.277,0.3-0.411,0.454c-0.079,0.09-0.161,0.177-0.236,0.27c-0.12,0.148-0.229,0.302-0.341,0.456    c-0.08,0.111-0.164,0.221-0.24,0.336c-0.09,0.137-0.171,0.278-0.254,0.418c-0.085,0.143-0.171,0.284-0.248,0.431    c-0.064,0.12-0.118,0.243-0.176,0.365c-0.083,0.174-0.166,0.347-0.239,0.525c-0.044,0.108-0.08,0.219-0.12,0.329    c-0.071,0.194-0.143,0.388-0.202,0.587c-0.034,0.116-0.06,0.234-0.091,0.352c-0.049,0.192-0.101,0.384-0.139,0.581    c-0.033,0.164-0.052,0.33-0.076,0.495c-0.021,0.152-0.049,0.302-0.064,0.456c-0.028,0.293-0.042,0.589-0.045,0.886    c0,0.028-0.004,0.056-0.004,0.085v0.013c0,0.023,0,0.047,0,0.071v64.069h-95.631v-11.056h26.807c5.522,0,10-4.477,10-10    s-4.478-10-10-10h-26.807v-25.768c5.708,3.338,11.748,6.217,18.099,8.539c1.134,0.415,2.293,0.611,3.434,0.611    c4.079,0,7.91-2.515,9.393-6.568c1.896-5.187-0.771-10.929-5.957-12.826c-36.448-13.33-60.937-48.244-60.937-86.878v-81.661    v-99.832c0-7.855,6.391-14.246,14.245-14.246c7.855,0,14.245,6.391,14.245,14.246v71.513v32.335v44.196    c0,17.478,13.166,31.929,30.1,33.983c-1.83,4.451-0.231,9.696,3.999,12.302c1.635,1.007,3.446,1.487,5.234,1.487    c3.356,0,6.636-1.69,8.524-4.758c12.739-20.686,35.744-33.536,60.037-33.536h10.008c5.522,0,10-4.477,10-10s-4.478-10-10-10    h-35.169c-7.855,0-14.245-6.391-14.245-14.246c0-7.854,6.391-14.244,14.245-14.244h59.413c2.818,0,5.44,0.833,7.654,2.251    c0.123,0.085,0.253,0.162,0.381,0.242c3.745,2.569,6.21,6.876,6.21,11.751v58.216C348.441,359.692,330.038,390.72,300.407,407.005    z M391.13,320.801c-1.579,1.935-2.377,4.391-2.237,6.884l8.286,147.332l-82.021-31.845v-21.646    c33.008-20.461,53.282-56.516,53.282-95.514v-58.216c0-9.878-4.21-18.788-10.923-25.044v-69.763l126.916,33.487L391.13,320.801z" fill="#fbebd5"/>
	</g>
</g>
<g>
</g>
<g>
</g>
<g>
</g>
<g>
</g>
<g>
</g>
<g>
</g>
<g>
</g>
<g>
</g>
<g>
</g>
<g>
</g>
<g>
</g>
<g>
</g>
<g>
</g>
<g>
</g>
<g>
</g>
</svg>
