<?xml version="1.0" encoding="iso-8859-1"?>
<!-- Generator: Adobe Illustrator 19.0.0, SVG Export Plug-In . SVG Version: 6.00 Build 0)  -->
<svg xmlns="http://www.w3.org/2000/svg" xmlns:xlink="http://www.w3.org/1999/xlink" version="1.1" id="Capa_1" x="0px" y="0px" viewBox="0 0 512 512" style="enable-background:new 0 0 512 512;" xml:space="preserve" width="512px" height="512px">
<g>
	<g>
		<path d="M256,146h-30v-19.667h20c5.522,0,10-4.478,10-10c0-5.522-4.478-10-10-10h-20V86h30c5.522,0,10-4.478,10-10    c0-5.522-4.478-10-10-10h-40c-5.522,0-10,4.478-10,10v80c0,5.522,4.478,10,10,10h40c5.522,0,10-4.478,10-10    C266,150.478,261.522,146,256,146z" fill="#fbebd5"/>
	</g>
</g>
<g>
	<g>
		<path d="M176,66c-5.522,0-10,4.478-10,10v37.321L146,78.68V76c0-5.522-4.478-10-10-10c-5.522,0-10,4.478-10,10v80    c0,5.522,4.478,10,10,10c5.522,0,10-4.478,10-10v-37.321l20,34.641V156c0,5.522,4.478,10,10,10c5.522,0,10-4.478,10-10V76    C186,70.478,181.522,66,176,66z" fill="#fbebd5"/>
	</g>
</g>
<g>
	<g>
		<path d="M384.982,66.454c-5.267-1.647-10.88,1.29-12.527,6.563l-16.127,51.606l-10.734-29.8l4.951-15.842    c1.647-5.271-1.291-10.88-6.563-12.527c-5.266-1.647-10.88,1.29-12.527,6.563L316,122.474l-15.455-49.456    c-1.646-5.271-7.253-8.205-12.527-6.563c-5.271,1.647-8.21,7.256-6.563,12.527l25,80C307.76,163.157,311.626,166,316,166    c4.374,0,8.24-2.843,9.545-7.018l10.174-32.557l11.873,32.963c1.431,3.974,5.199,6.611,9.406,6.611    c0.072,0,0.145-0.001,0.216-0.002c4.294-0.093,8.05-2.916,9.331-7.016l25-80C393.192,73.71,390.254,68.101,384.982,66.454z" fill="#fbebd5"/>
	</g>
</g>
<g>
	<g>
		<path d="M437,106c-5.514,0-10-4.486-10-10s4.486-10,10-10c2.671,0,5.183,1.04,7.072,2.93c3.907,3.905,10.237,3.903,14.143-0.002    c3.904-3.906,3.903-10.237-0.002-14.143C452.546,69.12,445.013,66,437,66c-16.542,0-30,13.458-30,30s13.458,30,30.027,30    c5.514,0,10,4.486,10,10c0,5.514-4.486,10-10,10c-2.671,0-5.183-1.04-7.072-2.93c-3.907-3.905-10.237-3.903-14.143,0.002    c-3.904,3.906-3.903,10.237,0.002,14.143c5.667,5.665,13.2,8.785,21.213,8.785c16.542,0,30-13.458,30-30S453.569,106,437,106z" fill="#fbebd5"/>
	</g>
</g>
<g>
	<g>
		<path d="M399,286c-5.514,0-10-4.486-10-10c0-5.514,4.486-10,10-10c2.668,0,5.178,1.039,7.066,2.925    c3.908,3.902,10.24,3.896,14.143-0.012c3.901-3.908,3.896-10.24-0.012-14.143c-3.2-3.195-6.995-5.578-11.135-7.047V236    c0-5.522-4.478-10-10-10c-5.522,0-10,4.478-10,10v11.699C377.391,251.81,369,262.94,369,276c0,16.542,13.458,30,30,30    c5.514,0,10,4.486,10,10c0,5.514-4.486,10-10,10c-2.671,0-5.183-1.04-7.072-2.93c-3.907-3.905-10.237-3.903-14.143,0.002    c-3.904,3.906-3.903,10.237,0.002,14.143c3.22,3.219,7.043,5.613,11.213,7.083V356c0,5.522,4.478,10,10,10c5.522,0,10-4.478,10-10    v-11.72c11.639-4.128,20-15.243,20-28.28C429,299.458,415.542,286,399,286z" fill="#fbebd5"/>
	</g>
</g>
<g>
	<g>
		<path d="M214,386h-64c-5.522,0-10,4.478-10,10c0,5.522,4.478,10,10,10h64c5.522,0,10-4.478,10-10C224,390.478,219.522,386,214,386    z" fill="#fbebd5"/>
	</g>
</g>
<g>
	<g>
		<path d="M214,426h-84c-5.522,0-10,4.478-10,10c0,5.522,4.478,10,10,10h84c5.522,0,10-4.478,10-10C224,430.478,219.522,426,214,426    z" fill="#fbebd5"/>
	</g>
</g>
<g>
	<g>
		<path d="M214,226h-84c-5.522,0-10,4.478-10,10v120c0,5.522,4.478,10,10,10h84c5.522,0,10-4.478,10-10V236    C224,230.478,219.522,226,214,226z M204,346h-64V246h64V346z" fill="#fbebd5"/>
	</g>
</g>
<g>
	<g>
		<path d="M338,226h-84c-5.522,0-10,4.478-10,10c0,5.522,4.478,10,10,10h84c5.522,0,10-4.478,10-10C348,230.478,343.522,226,338,226    z" fill="#fbebd5"/>
	</g>
</g>
<g>
	<g>
		<path d="M338,266h-84c-5.522,0-10,4.478-10,10c0,5.522,4.478,10,10,10h84c5.522,0,10-4.478,10-10C348,270.478,343.522,266,338,266    z" fill="#fbebd5"/>
	</g>
</g>
<g>
	<g>
		<path d="M338,306h-64c-5.522,0-10,4.478-10,10c0,5.522,4.478,10,10,10h64c5.522,0,10-4.478,10-10C348,310.478,343.522,306,338,306    z" fill="#fbebd5"/>
	</g>
</g>
<g>
	<g>
		<path d="M338,346h-84c-5.522,0-10,4.478-10,10c0,5.522,4.478,10,10,10h84c5.522,0,10-4.478,10-10C348,350.478,343.522,346,338,346    z" fill="#fbebd5"/>
	</g>
</g>
<g>
	<g>
		<path d="M338,386h-84c-5.522,0-10,4.478-10,10c0,5.522,4.478,10,10,10h84c5.522,0,10-4.478,10-10C348,390.478,343.522,386,338,386    z" fill="#fbebd5"/>
	</g>
</g>
<g>
	<g>
		<path d="M308,426h-54c-5.522,0-10,4.478-10,10c0,5.522,4.478,10,10,10h54c5.522,0,10-4.478,10-10C318,430.478,313.522,426,308,426    z" fill="#fbebd5"/>
	</g>
</g>
<g>
	<g>
		<path d="M462,226h-24c-5.522,0-10,4.478-10,10c0,5.522,4.478,10,10,10h24c5.522,0,10-4.478,10-10C472,230.478,467.522,226,462,226    z" fill="#fbebd5"/>
	</g>
</g>
<g>
	<g>
		<path d="M462,266h-14c-5.522,0-10,4.478-10,10c0,5.522,4.478,10,10,10h14c5.522,0,10-4.478,10-10C472,270.478,467.522,266,462,266    z" fill="#fbebd5"/>
	</g>
</g>
<g>
	<g>
		<path d="M462,306h-14c-5.522,0-10,4.478-10,10c0,5.522,4.478,10,10,10h14c5.522,0,10-4.478,10-10C472,310.478,467.522,306,462,306    z" fill="#fbebd5"/>
	</g>
</g>
<g>
	<g>
		<path d="M462,346h-24c-5.522,0-10,4.478-10,10c0,5.522,4.478,10,10,10h24c5.522,0,10-4.478,10-10C472,350.478,467.522,346,462,346    z" fill="#fbebd5"/>
	</g>
</g>
<g>
	<g>
		<path d="M462,386h-84c-5.522,0-10,4.478-10,10c0,5.522,4.478,10,10,10h84c5.522,0,10-4.478,10-10C472,390.478,467.522,386,462,386    z" fill="#fbebd5"/>
	</g>
</g>
<g>
	<g>
		<path d="M462,426h-84c-5.522,0-10,4.478-10,10c0,5.522,4.478,10,10,10h84c5.522,0,10-4.478,10-10C472,430.478,467.522,426,462,426    z" fill="#fbebd5"/>
	</g>
</g>
<g>
	<g>
		<path d="M502,26H90c-5.522,0-10,4.478-10,10v35.217L69.786,81.431L56.841,68.486c-3.909-3.892-10.229-3.883-14.126,0.016    L29.786,81.431L17.071,68.715c-2.86-2.86-7.161-3.714-10.898-2.168C2.437,68.095,0,71.741,0,75.786V436c0,27.57,22.43,50,50,50    h412c27.57,0,50-22.43,50-50V36C512,30.478,507.522,26,502,26z M80,121.217l-10.214,10.214l-12.715-12.716    c-2.859-2.86-7.161-3.714-10.898-2.168c-3.736,1.548-6.173,5.194-6.173,9.239V395.79c0,5.51,4.49,9.99,10,9.99s10-4.48,10-9.99    V149.929l2.715,2.716c1.875,1.875,4.419,2.929,7.071,2.929s5.195-1.054,7.071-2.929L80,149.502V436c0,16.542-13.458,30-30,30    s-30-13.458-30-30V99.929l2.715,2.716c1.875,1.875,4.419,2.929,7.071,2.929c2.652,0,5.195-1.054,7.071-2.929l12.929-12.93    l12.929,12.93c1.875,1.875,4.419,2.929,7.071,2.929s5.195-1.054,7.071-2.929L80,99.502V121.217z M492,436    c0,16.542-13.458,30-30,30H89.977c6.29-8.362,10.023-18.754,10.023-30V206h392V436z M492,186H100V46h392V186z" fill="#fbebd5"/>
	</g>
</g>
<g>
	<g>
		<path d="M50,425.78c-5.51,0-10,4.489-10,10.01c0,5.51,4.49,9.99,10,9.99s10-4.48,10-9.99C60,430.269,55.51,425.78,50,425.78z" fill="#fbebd5"/>
	</g>
</g>
<g>
</g>
<g>
</g>
<g>
</g>
<g>
</g>
<g>
</g>
<g>
</g>
<g>
</g>
<g>
</g>
<g>
</g>
<g>
</g>
<g>
</g>
<g>
</g>
<g>
</g>
<g>
</g>
<g>
</g>
</svg>
